<svg width="459" height="176" viewBox="0 0 459 176" fill="none" xmlns="http://www.w3.org/2000/svg">
<g opacity="0.5">
  <path d="M31.0451 161.386C26.3784 158.029 21.8047 154.307 18.7608 149.347C14.6402 142.632 11.5353 135.481 8.36239 128.291C5.56749 121.958 3.07447 115.457 3.00173 108.438C2.91289 99.865 6.25343 91.6958 12.2634 85.5482C17.3226 80.3732 24.174 79.1232 31.071 80.8851C36.0716 82.1625 42.2285 85.7056 43.7687 90.9864C45.2179 95.9551 43.8616 102.53 41.1981 106.875C39.5057 109.635 37.0726 113.573 33.9386 115.013C32.7773 115.546 35.3897 112.896 36.2637 111.964C38.2699 109.824 40.788 108.32 43.3941 107.017C48.6999 104.364 54.0218 103.51 59.9282 104.059C73.9806 105.365 86.0892 113.128 89.1213 127.581C92.3723 143.078 86.4828 158.739 72.4838 166.759C65.9227 170.518 58.5846 173.289 50.9378 172.391C46.3036 171.847 41.7284 170.68 37.5555 168.593" stroke="#00c7ff" stroke-width="6" stroke-linecap="round"/>
  
  <path d="M45.9267 90.4697C44.4592 87.1435 42.6719 83.7758 43.1365 80.0325C43.5843 76.4259 45.9103 73.6153 48.3035 71.0421C53.9487 64.972 62.3296 63.3943 70.2887 64.2993C78.4564 65.228 86.821 69.3218 92.0155 75.8344C94.1123 78.4632 95.5749 81.6574 97.26 84.5536C98.7517 87.1174 100.105 89.5546 100.98 92.4073C101.433 93.8846 102.427 96.0003 102.427 97.5613C102.427 97.8483 102.259 99.2706 102.685 99.0984C106.904 97.3928 109.942 95.3785 114.698 95.0166C121.315 94.5131 127.207 98.1923 130.729 103.684C132.664 106.703 133.685 110.241 134.888 113.592C136.123 117.031 137.724 120.852 137.949 124.545C138.305 130.367 137.002 137.641 132.33 141.635C128.636 144.794 122.276 145.1 117.695 144.309C111.303 143.205 108.537 139.193 105.372 134.014C104.69 132.898 104.109 131.718 103.383 130.63C103.106 130.215 102.96 128.998 102.608 129.351C102.069 129.889 104.607 135.113 104.829 135.809C105.728 138.618 106.478 141.632 106.715 144.58C107.125 149.673 105.203 154.22 99.8434 155.469C95.2495 156.54 90.4226 156.395 85.9186 155.108" stroke="#00c7ff" stroke-width="6" stroke-linecap="round"/>

  <path d="M50.2881 131.617C50.9116 134.02 51.9165 140.789 55.366 141.199C57.7602 141.483 60.2005 139.829 61.3976 137.89C62.9581 135.362 61.4543 131.617 58.3531 131.617" stroke="#00c7ff" stroke-width="6" stroke-linecap="round"/>
  
  <path d="M71.3818 81.78C71.8788 84.62 74.1839 91.4265 78.0567 87.8575C79.66 86.3799 79.3307 84.2915 78.8264 82.4004" stroke="#00c7ff" stroke-width="6" stroke-linecap="round"/>
  
  <path d="M92.2685 78.335C92.203 69.068 93.8596 60.9421 99.7466 53.5622C105.682 46.1214 115.745 42.1847 125.005 41.4075C136.402 40.4509 146.902 43.3456 155.866 50.4739C164.572 57.3967 172.012 66.5607 176.536 76.7687C181.193 87.278 184.781 99.4756 181.455 110.983C180.383 114.69 177.897 117.97 175.686 121.042C173.735 123.753 171.626 126.915 168.991 129.072C167.046 130.664 163.835 132.086 161.314 132.248C153.494 132.753 148.461 125.578 145.498 119.277C144.879 117.961 143.888 116.175 143.888 114.667" stroke="#00c7ff" stroke-width="6" stroke-linecap="round"/>
  
  <path d="M151.431 131.741C149.09 135.697 146.309 138.531 141.968 140.123C140.034 140.833 138.289 141.486 136.343 140.675" stroke="#00c7ff" stroke-width="6" stroke-linecap="round"/>
  
  <path d="M125.822 72.3792C126.183 74.0915 126.517 79.6577 128.8 80.4309C130.081 80.8647 132.206 79.1662 132.804 78.1918C134.504 75.4226 133.016 72.309 130.587 70.7909" stroke="#00c7ff" stroke-width="6" stroke-linecap="round"/>
  
  <path d="M160.829 50.2945C157.464 50.1581 155.881 49.4364 155.125 46.0891C154.244 42.1872 155.192 37.9734 156.355 34.2335C159.883 22.8938 175.048 17.8275 185.692 19.358C191.115 20.1378 197.776 22.8716 200.87 27.6346C204.915 33.8635 206.837 40.844 208.799 47.901C210.289 53.2572 212.111 58.5448 212.725 64.0962C213.003 66.605 213.081 69.164 213.575 71.6346" stroke="#00c7ff" stroke-width="6" stroke-linecap="round"/>
  
  <path d="M212.771 53.1131C211.531 48.5315 210.761 44.4681 211.575 39.7476C212.019 37.1689 212.516 34.5133 213.241 31.9967C215.106 25.527 218.561 18.8402 223.978 14.6383C227.757 11.7075 232.582 10.5313 237.288 11.4842C243.872 12.8174 248.858 19.1324 251.705 24.7939C255.806 32.9501 257.991 40.8304 259.355 49.8361C260.098 54.7403 260.798 59.7055 260.552 64.8316C260.245 70.2074 258.275 75.6249 256.005 79.2286" stroke="#00c7ff" stroke-width="6" stroke-linecap="round"/>
</g>
</svg>
